# xmcd
#
# Track frame offsets: 
#        150
#        22141
#        50323
#        72367
#        95551
#        132837
#        158317
#        184095
#        208632
#        233385
#        259396
#        277749
#        290672
#
# Disc length: 3951 seconds
#
# Revision: 0
# Processed by: cddbd v1.5.2PL0 Copyright (c) Steve Scherf et al.
# Submitted via: ExactAudioCopy v0.99pb4
#
DISCID=b30f6d0d
DTITLE=John Starkey - le compagnon de l'ame
DYEAR=2003
DGENRE=Jazz
TTITLE0=Sunshine
TTITLE1=Steady And Slow
TTITLE2=Sugar
TTITLE3=You Want It
TTITLE4=Hands In Your Pocket
TTITLE5=Weeping Willow
TTITLE6=My Soul
TTITLE7=Shell
TTITLE8=Your Soul
TTITLE9=Energy
TTITLE10=Don't Be Afraid
TTITLE11=My Soul (Reprise)
TTITLE12=Bonus
EXTD=
EXTT0=
EXTT1=
EXTT2=
EXTT3=
EXTT4=
EXTT5=
EXTT6=
EXTT7=
EXTT8=
EXTT9=
EXTT10=
EXTT11=
EXTT12=
PLAYORDER=
